<svg xmlns="http://www.w3.org/2000/svg" viewBox="0 0 119.73 83.31"><defs><style>.cls-1{fill:#964b00;stroke:#8c4200;stroke-linejoin:round;stroke-width:0.5px;}.cls-2{fill:#fff;}</style></defs><title>cat_box</title><g id="Layer_2" data-name="Layer 2"><polygon class="cls-1" points="98.68 82.81 20.42 83.06 17.1 42.34 101.61 42.34 98.68 82.81"/><polygon class="cls-1" points="107.48 61.49 11.74 61.49 19.14 33.66 100.85 34.17 107.48 61.49"/><polygon class="cls-1" points="100.85 35.17 119.48 56.11 105.95 56.11 100.85 35.17"/><polygon class="cls-1" points="18.89 34.15 0.25 55.09 13.78 55.09 18.89 34.15"/></g><g id="Layer_3" data-name="Layer 3"><g id="Layer_1" data-name="Layer 1"><ellipse cx="75.63" cy="6.81" rx="3.08" ry="6.81"/><path class="cls-2" d="M110.25,16.34c1.65,0,3,3,3,6.74s-1.35,6.74-3,6.74-3-3-3-6.74,1.34-6.74,3-6.74m0-.07c-1.7,0-3.08,3-3.08,6.81s1.38,6.81,3.08,6.81,3.08-3.05,3.08-6.81-1.38-6.81-3.08-6.81Z" transform="translate(-34.62 -15.66)"/><ellipse cx="48.24" cy="6.81" rx="3.08" ry="6.81"/><path class="cls-2" d="M82.86,16.64c1.65,0,3,3,3,6.74s-1.35,6.74-3,6.74-3-3-3-6.74,1.34-6.74,3-6.74m0-.07c-1.7,0-3.08,3.05-3.08,6.81s1.38,6.81,3.08,6.81,3.09-3,3.09-6.81-1.38-6.81-3.09-6.81Z" transform="translate(-34.62 -15.66)"/></g><g id="Layer_3-2" data-name="Layer 3"><path d="M99.38,49.4c0-.83,1.06-1.51,2.37-1.51s2.37.68,2.37,1.51H121.9a16.12,16.12,0,0,0,3.49-9.84c0-11.12-12.26-20.13-27.38-20.13s-27.39,9-27.39,20.13a16.13,16.13,0,0,0,3.5,9.84Z" transform="translate(-34.62 -15.66)"/><path d="M69.26,49.4H64.12s-.68-7.26-2.74-12.11,1.71-4.54,1.71-4.54,3.09-.3,3.09,3.94C66.18,40.63,69.26,49.4,69.26,49.4Z" transform="translate(-34.62 -15.66)"/><path class="cls-2" d="M104.16,49.4a2.48,2.48,0,0,0-4.77,0Z" transform="translate(-34.62 -15.66)"/></g><g id="Layer_2-2" data-name="Layer 2"><ellipse class="cls-2" cx="83.25" cy="26.4" rx="3.08" ry="6.81"/><ellipse cx="83.3" cy="27.91" rx="2.69" ry="4.69"/><ellipse class="cls-2" cx="57.58" cy="26.4" rx="3.08" ry="6.81"/><ellipse cx="57.63" cy="27.91" rx="2.69" ry="4.69"/></g></g></svg>