<svg id="Layer_1" data-name="Layer 1" xmlns="http://www.w3.org/2000/svg" viewBox="0 0 188.78 112"><defs><style>.cls-1{fill:#fff;}</style></defs><title>gatito</title><g id="Layer_1-2" data-name="Layer 1"><ellipse cx="144.79" cy="22.5" rx="9" ry="22.5"/><path class="cls-1" d="M149.39,5.06c4.82,0,8.75,10,8.75,22.25s-3.93,22.25-8.75,22.25-8.75-10-8.75-22.25,3.93-22.25,8.75-22.25m0-.25c-5,0-9,10.07-9,22.5s4,22.5,9,22.5,9-10.07,9-22.5-4-22.5-9-22.5Z" transform="translate(-4.6 -2.81)"/><ellipse cx="64.79" cy="22.5" rx="9" ry="22.5"/><path class="cls-1" d="M69.39,6.06c4.82,0,8.75,10,8.75,22.25s-3.93,22.25-8.75,22.25-8.75-10-8.75-22.25S64.57,6.06,69.39,6.06m0-.25c-5,0-9,10.07-9,22.5s4,22.5,9,22.5,9-10.07,9-22.5-4-22.5-9-22.5Z" transform="translate(-4.6 -2.81)"/></g><g id="Layer_3" data-name="Layer 3"><path d="M117.39,114.81c0-2.76,3.1-5,6.92-5s6.92,2.24,6.92,5h51.94a57.75,57.75,0,0,0,10.21-32.5c0-36.73-35.82-66.5-80-66.5s-80,29.77-80,66.5a57.75,57.75,0,0,0,10.21,32.5Z" transform="translate(-4.6 -2.81)"/><path d="M29.39,114.81h-15s-2-24-8-40,5-15,5-15,9-1,9,13C20.39,85.85,29.39,114.81,29.39,114.81Z" transform="translate(-4.6 -2.81)"/><path class="cls-1" d="M131.36,114.81a7,7,0,0,0-13.94,0Z" transform="translate(-4.6 -2.81)"/></g><g id="Layer_2" data-name="Layer 2"><ellipse class="cls-1" cx="167.06" cy="87.17" rx="9" ry="22.5"/><ellipse cx="167.2" cy="92.17" rx="7.86" ry="15.5"/><ellipse class="cls-1" cx="92.06" cy="87.17" rx="9" ry="22.5"/><ellipse cx="92.2" cy="92.17" rx="7.86" ry="15.5"/></g></svg>